<?xml version="1.0" encoding="utf-8"?>
<!-- Generator: Adobe Illustrator 18.1.0, SVG Export Plug-In . SVG Version: 6.00 Build 0)  -->
<svg version="1.1" xmlns="http://www.w3.org/2000/svg" xmlns:xlink="http://www.w3.org/1999/xlink" x="0px" y="0px"
	 viewBox="0 0 66.5 74.2" enable-background="new 0 0 66.5 74.2" xml:space="preserve">
<g id="header_img">
</g>
<g id="Layer_2">
	<g>
		<g>
			<linearGradient id="SVGID_2_" gradientUnits="userSpaceOnUse" x1="33.2516" y1="-88.2595" x2="33.2516" y2="187.2626">
				<stop  offset="0" style="stop-color:#3B83C4"/>
				<stop  offset="1" style="stop-color:#00A89C"/>
			</linearGradient>
			<path fill="url(#SVGID_2_)" d="M8,26.7L63.3,11l-2.5-8.9L1.3,19l2.2,7.7H3.4v7.6v1.6V72h61.9V35.9v-1.6v-7.6H8z M61.3,9.9
				l-5.6,1.6l4-7.1L61.3,9.9z M48.9,7.2l-4.1,7.4l-7.6,2.1l4.1-7.4L48.9,7.2z M30.4,12.4l-4.1,7.4l-8.4,2.4l4.1-7.4L30.4,12.4z
				 M11.1,17.9L7,25.3l-2.1,0.6l-1.6-5.7L11.1,17.9z M52.5,28.3l-6,6h-7.9l6-6H52.5z M33.3,28.3l-6,6h-8.8l6-6H33.3z M7.2,34.3H5v-6
				h8.1L7.2,34.3z M63.6,34.3h-5.7l5.7-5.7V34.3z"/>
		</g>
	</g>
</g>
</svg>
