<?xml version="1.0" encoding="iso-8859-1"?>
<!-- Generator: Adobe Illustrator 16.0.0, SVG Export Plug-In . SVG Version: 6.00 Build 0)  -->
<!DOCTYPE svg PUBLIC "-//W3C//DTD SVG 1.1//EN" "http://www.w3.org/Graphics/SVG/1.1/DTD/svg11.dtd">
<svg version="1.1" id="Capa_1" xmlns="http://www.w3.org/2000/svg" xmlns:xlink="http://www.w3.org/1999/xlink" x="0px" y="0px"
	 width="79.537px" height="79.537px" viewBox="0 0 79.537 79.537" style="enable-background:new 0 0 79.537 79.537;"
	 xml:space="preserve">
<g>
	<path style="fill:#010002;" d="M17.896,40.831V67.86l-1.31,1.673L0,71.215V38.301l16.586,1.012L17.896,40.831z M60.604,32.765
		l9.062,1.417h8.844c0,0,0.922-1.952,1.021-6.517c0.099-4.565-1.021-6.74-1.021-6.74H69.49l-8.388,3.436h-8.477V12.247H41.757
		v-0.753c-0.754-3.076-4.953-3.172-5.479-3.172h-0.005L4.477,8.938c-0.171,0-4.088,0.052-4.306,4.93v1.522
		c0.21,4.842,4.119,4.904,4.298,4.904l31.81,0.622h0.033c0.482,0,4.697-0.091,5.461-3.345v-0.59h3.272v7.387h-0.741L37.26,42.342
		h-1.676v23.509v0.812v2.874h28.542l2.854-3.687h7.87c0,0,2.346-3.355,2.517-11.495c0.161-8.15-2.517-12.014-2.517-12.014H51.191
		v-9.577H60.604z M33.989,43.336v21.665h-3.404l-3.547,2.858h-7.547V40.831h7.547l3.547,2.517h3.404V43.336z M19.789,45.703
		c0,0.384,0.313,0.699,0.694,0.699h6.385l3.177,1.585c0.101,0.057,0.207,0.077,0.313,0.077c0.254,0,0.502-0.14,0.619-0.383
		c0.171-0.337,0.039-0.762-0.311-0.932l-3.319-1.663c-0.09-0.057-0.202-0.077-0.308-0.077h-6.556
		C20.102,45.009,19.789,45.325,19.789,45.703z M19.789,49.757c0,0.378,0.313,0.693,0.694,0.693h6.449l3.224,0.959
		c0.07,0.021,0.132,0.025,0.202,0.025c0.303,0,0.578-0.191,0.668-0.497c0.111-0.368-0.106-0.756-0.471-0.864l-3.319-0.989
		c-0.064-0.011-0.134-0.021-0.196-0.021h-6.556C20.102,49.064,19.789,49.375,19.789,49.757z M30.96,60.539
		c-0.188-0.332-0.619-0.456-0.953-0.265l-3.161,1.808h-6.364c-0.381,0-0.694,0.311-0.694,0.693c0,0.379,0.313,0.694,0.694,0.694
		h6.55c0.117,0,0.238-0.031,0.344-0.093l3.319-1.886C31.035,61.294,31.152,60.87,30.96,60.539z M31.035,57.177
		c-0.08-0.367-0.456-0.657-0.828-0.533l-3.169,0.694h-6.556c-0.381,0-0.694,0.311-0.694,0.693c0,0.384,0.313,0.694,0.694,0.694
		l6.698-0.016l3.319-0.709C30.877,57.918,31.116,57.556,31.035,57.177z M31.046,54.118c0-0.384-0.313-0.694-0.694-0.694h-9.869
		c-0.381,0-0.694,0.311-0.694,0.694c0,0.383,0.313,0.693,0.694,0.693h9.869C30.737,54.811,31.046,54.5,31.046,54.118z"/>
</g>
<g>
</g>
<g>
</g>
<g>
</g>
<g>
</g>
<g>
</g>
<g>
</g>
<g>
</g>
<g>
</g>
<g>
</g>
<g>
</g>
<g>
</g>
<g>
</g>
<g>
</g>
<g>
</g>
<g>
</g>
</svg>
