<?xml version="1.0" encoding="utf-8"?>
<!-- Generator: Adobe Illustrator 18.1.0, SVG Export Plug-In . SVG Version: 6.00 Build 0)  -->
<svg version="1.1" xmlns="http://www.w3.org/2000/svg" xmlns:xlink="http://www.w3.org/1999/xlink" x="0px" y="0px"
	 viewBox="0 0 96.1 79.3" enable-background="new 0 0 96.1 79.3" xml:space="preserve">
<g id="header_img">
</g>
<g id="Layer_2">
	<linearGradient id="SVGID_2_" gradientUnits="userSpaceOnUse" x1="48.0631" y1="-86.77" x2="48.0631" y2="188.7521">
		<stop  offset="0" style="stop-color:#3B83C4"/>
		<stop  offset="1" style="stop-color:#00A89C"/>
	</linearGradient>
	<path fill="url(#SVGID_2_)" d="M23.1,40.9v30.9l-1.5,1.9l-19,1.9V38l19,1.2L23.1,40.9z M71.9,31.7l10.4,1.6h10.1
		c0,0,1.1-2.2,1.2-7.4s-1.2-7.7-1.2-7.7H82L72.4,22h-9.7V8.2H50.3V7.3c-0.9-3.5-5.7-3.6-6.3-3.6h0L7.7,4.4c-0.2,0-4.7,0.1-4.9,5.6
		v1.7c0.2,5.5,4.7,5.6,4.9,5.6l36.4,0.7h0c0.6,0,5.4-0.1,6.2-3.8v-0.7h3.7v8.4h-0.8l-8,20.5h-1.9v26.9v0.9v3.3h32.6l3.3-4.2h9
		c0,0,2.7-3.8,2.9-13.1c0.2-9.3-2.9-13.7-2.9-13.7h-27V31.7H71.9z M41.5,43.7v24.8h-3.9l-4.1,3.3h-8.6V40.9h8.6l4.1,2.9L41.5,43.7
		L41.5,43.7z M25.2,46.4c0,0.4,0.4,0.8,0.8,0.8h7.3l3.6,1.8c0.1,0.1,0.2,0.1,0.4,0.1c0.3,0,0.6-0.2,0.7-0.4c0.2-0.4,0-0.9-0.4-1.1
		l-3.8-1.9c-0.1-0.1-0.2-0.1-0.4-0.1H26C25.6,45.6,25.2,46,25.2,46.4z M25.2,51.1c0,0.4,0.4,0.8,0.8,0.8h7.4l3.7,1.1
		c0.1,0,0.2,0,0.2,0c0.3,0,0.7-0.2,0.8-0.6c0.1-0.4-0.1-0.9-0.5-1l-3.8-1.1c-0.1,0-0.2,0-0.2,0H26C25.6,50.3,25.2,50.6,25.2,51.1z
		 M38,63.4c-0.2-0.4-0.7-0.5-1.1-0.3l-3.6,2.1H26c-0.4,0-0.8,0.4-0.8,0.8s0.4,0.8,0.8,0.8h7.5c0.1,0,0.3,0,0.4-0.1l3.8-2.2
		C38.1,64.3,38.2,63.8,38,63.4z M38.1,59.6c-0.1-0.4-0.5-0.8-0.9-0.6l-3.6,0.8H26c-0.4,0-0.8,0.4-0.8,0.8c0,0.4,0.4,0.8,0.8,0.8
		l7.7,0l3.8-0.8C37.9,60.4,38.2,60,38.1,59.6z M38.1,56.1c0-0.4-0.4-0.8-0.8-0.8H26c-0.4,0-0.8,0.4-0.8,0.8s0.4,0.8,0.8,0.8h11.3
		C37.7,56.8,38.1,56.5,38.1,56.1z"/>
</g>
</svg>
