<?xml version="1.0" encoding="utf-8"?>
<!-- Generator: Adobe Illustrator 18.1.0, SVG Export Plug-In . SVG Version: 6.00 Build 0)  -->
<svg version="1.1" xmlns="http://www.w3.org/2000/svg" xmlns:xlink="http://www.w3.org/1999/xlink" x="0px" y="0px"
	 viewBox="0 0 84.1 85.7" enable-background="new 0 0 84.1 85.7" xml:space="preserve">
<g id="header_img">
</g>
<g id="Layer_2">
	<g>
		<linearGradient id="SVGID_2_" gradientUnits="userSpaceOnUse" x1="74.8224" y1="-59.5042" x2="74.8224" y2="161.3069">
			<stop  offset="0" style="stop-color:#3B83C4"/>
			<stop  offset="1" style="stop-color:#00A89C"/>
		</linearGradient>
		<path fill="url(#SVGID_2_)" d="M80.3,40.2h-11c-1.4,0-2.6,1.1-2.6,2.6s1.1,2.6,2.6,2.6h11c1.4,0,2.6-1.2,2.6-2.6
			S81.8,40.2,80.3,40.2z"/>
		<linearGradient id="SVGID_3_" gradientUnits="userSpaceOnUse" x1="65.2072" y1="-59.5042" x2="65.2072" y2="161.3069">
			<stop  offset="0" style="stop-color:#3B83C4"/>
			<stop  offset="1" style="stop-color:#00A89C"/>
		</linearGradient>
		<path fill="url(#SVGID_3_)" d="M63.1,25.4l7.8-7.9c1-1,1-2.5,0-3.6c-1-1-2.6-1.1-3.6,0l-7.8,7.9c-1,1-1.1,2.6,0,3.6
			C60.5,26.4,62.2,26.4,63.1,25.4z"/>
		<linearGradient id="SVGID_5_" gradientUnits="userSpaceOnUse" x1="65.2265" y1="-59.5042" x2="65.2265" y2="161.3069">
			<stop  offset="0" style="stop-color:#3B83C4"/>
			<stop  offset="1" style="stop-color:#00A89C"/>
		</linearGradient>
		<path fill="url(#SVGID_5_)" d="M63.1,60.3c-1.1-1.1-2.7-1.1-3.6,0c-1.1,0.9-1,2.6,0,3.6l7.8,7.8c0.8,1,2.8,1,3.6,0
			c1.1-0.9,1.1-2.6,0-3.6L63.1,60.3z"/>
		<linearGradient id="SVGID_7_" gradientUnits="userSpaceOnUse" x1="42.0296" y1="-59.5042" x2="42.0296" y2="161.3069">
			<stop  offset="0" style="stop-color:#3B83C4"/>
			<stop  offset="1" style="stop-color:#00A89C"/>
		</linearGradient>
		<path fill="url(#SVGID_7_)" d="M42,18.2c1.4,0,2.6-1.1,2.6-2.6V4.5c0-1.4-1.2-2.6-2.6-2.6c-1.4,0-2.6,1.1-2.6,2.6v11.1
			C39.5,17,40.6,18.2,42,18.2z"/>
		<linearGradient id="SVGID_9_" gradientUnits="userSpaceOnUse" x1="42.0296" y1="-59.5042" x2="42.0296" y2="161.3069">
			<stop  offset="0" style="stop-color:#3B83C4"/>
			<stop  offset="1" style="stop-color:#00A89C"/>
		</linearGradient>
		<path fill="url(#SVGID_9_)" d="M42,67.5c-1.4,0-2.6,1.1-2.6,2.6v11.1c0,1.3,1.1,2.6,2.6,2.6c1.4,0,2.6-1.2,2.6-2.6V70
			C44.6,68.6,43.4,67.5,42,67.5z"/>
		<linearGradient id="SVGID_11_" gradientUnits="userSpaceOnUse" x1="42.0058" y1="-59.5042" x2="42.0058" y2="161.3069">
			<stop  offset="0" style="stop-color:#3B83C4"/>
			<stop  offset="1" style="stop-color:#00A89C"/>
		</linearGradient>
		<path fill="url(#SVGID_11_)" d="M56,28.7c-3.9-3.9-8.5-5.8-14-5.8c-5.5,0-10.2,2-14.1,5.8c-3.9,3.9-5.8,8.5-5.8,14
			s1.9,10.2,5.8,14.1c3.9,3.9,8.6,5.8,14.1,5.8c5.5,0,10.2-2,14-5.8c3.9-3.9,5.8-8.6,5.8-14.1S59.9,32.6,56,28.7z M52.4,53.2
			c-2.9,2.9-6.4,4.3-10.4,4.3c-4,0-7.5-1.4-10.4-4.3c-2.9-2.9-4.3-6.4-4.3-10.4c0-4,1.4-7.5,4.3-10.4C34.5,29.5,38,28,42,28
			c4.1,0,7.6,1.4,10.4,4.3c2.9,2.9,4.3,6.4,4.3,10.4C56.8,46.8,55.3,50.3,52.4,53.2z"/>
		<linearGradient id="SVGID_12_" gradientUnits="userSpaceOnUse" x1="18.8511" y1="-59.5042" x2="18.8511" y2="161.3069">
			<stop  offset="0" style="stop-color:#3B83C4"/>
			<stop  offset="1" style="stop-color:#00A89C"/>
		</linearGradient>
		<path fill="url(#SVGID_12_)" d="M21,25.4c0.5,0.5,1.1,0.7,1.8,0.7c0.6,0,1.2-0.2,1.8-0.7c0.9-1.1,0.9-2.7,0-3.6l-7.9-7.9
			c-0.9-0.9-2.7-0.9-3.6,0c-1.1,1.1-1,2.6,0,3.6L21,25.4z"/>
		<linearGradient id="SVGID_13_" gradientUnits="userSpaceOnUse" x1="18.8523" y1="-59.5042" x2="18.8523" y2="161.3069">
			<stop  offset="0" style="stop-color:#3B83C4"/>
			<stop  offset="1" style="stop-color:#00A89C"/>
		</linearGradient>
		<path fill="url(#SVGID_13_)" d="M20.9,60.3l-7.8,7.8c-1.1,1.1-1.1,2.6,0,3.7c1,1,2.6,1,3.6,0l7.9-7.9c1-1,0.9-2.7,0-3.6
			C23.6,59.2,22,59.2,20.9,60.3z"/>
		<linearGradient id="SVGID_14_" gradientUnits="userSpaceOnUse" x1="9.2823" y1="-59.5042" x2="9.2823" y2="161.3069">
			<stop  offset="0" style="stop-color:#3B83C4"/>
			<stop  offset="1" style="stop-color:#00A89C"/>
		</linearGradient>
		<path fill="url(#SVGID_14_)" d="M17.4,42.8c0-1.4-1.1-2.6-2.6-2.6H3.7c-1.4,0-2.6,1.1-2.6,2.6s1.1,2.6,2.6,2.6h11.1
			C16.3,45.4,17.4,44.2,17.4,42.8z"/>
	</g>
</g>
</svg>
